<svg fill="rgb(52, 168, 202)" width="16" height="16" viewBox="0 0 1024 1024" class="" xmlns="http://www.w3.org/2000/svg" xmlns:xlink="http://www.w3.org/1999/xlink"><path d="M222.080 350.080c8.687-8.689 20.688-14.063 33.945-14.063 10.737 0 20.65 3.525 28.646 9.482l-0.127-0.091 5.376 4.672 222.080 222.016 222.080-222.080c8.683-8.667 20.67-14.026 33.908-14.026 10.753 0 20.68 3.536 28.682 9.508l-0.126-0.090 5.376 4.672c8.689 8.687 14.063 20.688 14.063 33.945 0 10.737-3.525 20.65-9.482 28.646l0.091-0.127-4.672 5.376-256 256c-8.687 8.689-20.688 14.063-33.945 14.063-10.737 0-20.65-3.525-28.646-9.482l0.127 0.091-5.376-4.672-256-256c-8.674-8.684-14.038-20.676-14.038-33.92s5.364-25.236 14.038-33.921l-0.001 0.001z"></path></svg>