<svg fill="rgb(52, 168, 202)" width="24" height="24" viewBox="0 0 1024 1024" class="" xmlns="http://www.w3.org/2000/svg" xmlns:xlink="http://www.w3.org/1999/xlink"><path d="M755.499 695.168l128 128c7.41 7.665 11.977 18.12 11.977 29.641 0 23.564-19.103 42.667-42.667 42.667-11.521 0-21.976-4.567-29.653-11.989l0.012 0.012-128-128c-7.41-7.665-11.977-18.12-11.977-29.641 0-23.564 19.103-42.667 42.667-42.667 11.521 0 21.976 4.567 29.653 11.989l-0.012-0.012zM426.667 85.333c188.513 0 341.333 152.82 341.333 341.333s-152.82 341.333-341.333 341.333v0c-188.513 0-341.333-152.82-341.333-341.333s152.82-341.333 341.333-341.333v0zM426.667 170.667c-141.385 0-256 114.615-256 256s114.615 256 256 256v0c141.385 0 256-114.615 256-256s-114.615-256-256-256v0z"></path></svg>